<svg xmlns="http://www.w3.org/2000/svg" version="1.1" xmlns:xlink="http://www.w3.org/1999/xlink" xmlns:svgjs="http://svgjs.com/svgjs" width="1440" height="560" preserveAspectRatio="none" viewBox="0 0 1440 560"><g mask="url(&quot;#SvgjsMask5313&quot;)" fill="none"><rect width="1440" height="560" x="0" y="0" fill="url(#SvgjsLinearGradient5314)"></rect><path d="M939 1L603 -335" stroke-width="10" stroke="url(#SvgjsLinearGradient5315)" stroke-linecap="round" class="BottomRight"></path><path d="M200 559L-169 190" stroke-width="10" stroke="url(#SvgjsLinearGradient5316)" stroke-linecap="round" class="TopLeft"></path><path d="M666 97L413 -156" stroke-width="8" stroke="url(#SvgjsLinearGradient5317)" stroke-linecap="round" class="BottomRight"></path><path d="M483 488L283 288" stroke-width="10" stroke="url(#SvgjsLinearGradient5317)" stroke-linecap="round" class="BottomRight"></path><path d="M264 118L-108 -254" stroke-width="6" stroke="url(#SvgjsLinearGradient5318)" stroke-linecap="round" class="BottomRight"></path><path d="M998 193L692 -113" stroke-width="8" stroke="url(#SvgjsLinearGradient5316)" stroke-linecap="round" class="TopLeft"></path><path d="M1222 166L1024 -32" stroke-width="10" stroke="url(#SvgjsLinearGradient5316)" stroke-linecap="round" class="TopLeft"></path><path d="M681 233L431 -17" stroke-width="10" stroke="url(#SvgjsLinearGradient5319)" stroke-linecap="round" class="TopLeft"></path><path d="M1123 146L973 -4" stroke-width="8" stroke="url(#SvgjsLinearGradient5318)" stroke-linecap="round" class="BottomRight"></path><path d="M678 11L311 -356" stroke-width="8" stroke="url(#SvgjsLinearGradient5318)" stroke-linecap="round" class="BottomRight"></path><path d="M1121 509L768 156" stroke-width="10" stroke="url(#SvgjsLinearGradient5320)" stroke-linecap="round" class="TopLeft"></path><path d="M1397 182L1225 10" stroke-width="10" stroke="url(#SvgjsLinearGradient5319)" stroke-linecap="round" class="TopLeft"></path><path d="M1296 473L1540 717" stroke-width="8" stroke="url(#SvgjsLinearGradient5321)" stroke-linecap="round" class="TopLeft"></path><path d="M156 238L404 486" stroke-width="10" stroke="url(#SvgjsLinearGradient5320)" stroke-linecap="round" class="TopLeft"></path><path d="M499 422L106 29" stroke-width="6" stroke="url(#SvgjsLinearGradient5319)" stroke-linecap="round" class="TopLeft"></path><path d="M1046 167L657 -222" stroke-width="8" stroke="url(#SvgjsLinearGradient5320)" stroke-linecap="round" class="TopLeft"></path><path d="M1380 178L1633 431" stroke-width="6" stroke="url(#SvgjsLinearGradient5315)" stroke-linecap="round" class="BottomRight"></path><path d="M709 467L1044 802" stroke-width="6" stroke="url(#SvgjsLinearGradient5319)" stroke-linecap="round" class="TopLeft"></path><path d="M417 127L252 -38" stroke-width="6" stroke="url(#SvgjsLinearGradient5321)" stroke-linecap="round" class="TopLeft"></path><path d="M1425 328L1184 87" stroke-width="6" stroke="url(#SvgjsLinearGradient5315)" stroke-linecap="round" class="BottomRight"></path><path d="M689 165L522 -2" stroke-width="6" stroke="url(#SvgjsLinearGradient5318)" stroke-linecap="round" class="BottomRight"></path><path d="M152 496L-153 191" stroke-width="8" stroke="url(#SvgjsLinearGradient5315)" stroke-linecap="round" class="BottomRight"></path><path d="M54 144L-334 -244" stroke-width="6" stroke="url(#SvgjsLinearGradient5317)" stroke-linecap="round" class="BottomRight"></path><path d="M86 202L-192 -76" stroke-width="8" stroke="url(#SvgjsLinearGradient5317)" stroke-linecap="round" class="BottomRight"></path><path d="M923 186L533 -204" stroke-width="8" stroke="url(#SvgjsLinearGradient5322)" stroke-linecap="round" class="BottomRight"></path><path d="M221 476L53 308" stroke-width="6" stroke="url(#SvgjsLinearGradient5320)" stroke-linecap="round" class="TopLeft"></path><path d="M382 269L46 -67" stroke-width="8" stroke="url(#SvgjsLinearGradient5320)" stroke-linecap="round" class="TopLeft"></path><path d="M1218 508L1610 900" stroke-width="10" stroke="url(#SvgjsLinearGradient5316)" stroke-linecap="round" class="TopLeft"></path><path d="M557 327L349 119" stroke-width="8" stroke="url(#SvgjsLinearGradient5320)" stroke-linecap="round" class="TopLeft"></path><path d="M1080 408L870 198" stroke-width="10" stroke="url(#SvgjsLinearGradient5318)" stroke-linecap="round" class="BottomRight"></path><path d="M139 320L456 637" stroke-width="8" stroke="url(#SvgjsLinearGradient5320)" stroke-linecap="round" class="TopLeft"></path><path d="M406 20L50 -336" stroke-width="8" stroke="url(#SvgjsLinearGradient5316)" stroke-linecap="round" class="TopLeft"></path><path d="M610 229L993 612" stroke-width="10" stroke="url(#SvgjsLinearGradient5321)" stroke-linecap="round" class="TopLeft"></path><path d="M569 58L151 -360" stroke-width="6" stroke="url(#SvgjsLinearGradient5322)" stroke-linecap="round" class="BottomRight"></path><path d="M835 446L1115 726" stroke-width="6" stroke="url(#SvgjsLinearGradient5318)" stroke-linecap="round" class="BottomRight"></path><path d="M1112 401L1331 620" stroke-width="6" stroke="url(#SvgjsLinearGradient5320)" stroke-linecap="round" class="TopLeft"></path><path d="M1168 513L995 340" stroke-width="8" stroke="url(#SvgjsLinearGradient5322)" stroke-linecap="round" class="BottomRight"></path><path d="M592 467L989 864" stroke-width="10" stroke="url(#SvgjsLinearGradient5322)" stroke-linecap="round" class="BottomRight"></path><path d="M920 369L1063 512" stroke-width="10" stroke="url(#SvgjsLinearGradient5319)" stroke-linecap="round" class="TopLeft"></path></g><defs><mask id="SvgjsMask5313"><rect width="1440" height="560" fill="#ffffff"></rect></mask><linearGradient x1="50%" y1="100%" x2="50%" y2="0%" gradientUnits="userSpaceOnUse" id="SvgjsLinearGradient5314"><stop stop-color="#0e2a47" offset="0"></stop><stop stop-color="rgba(129, 40, 163, 1)" offset="1"></stop></linearGradient><linearGradient x1="0%" y1="0%" x2="100%" y2="100%" id="SvgjsLinearGradient5315"><stop stop-color="rgba(51, 198, 189, 0)" offset="0"></stop><stop stop-color="rgba(51, 198, 189, 1)" offset="1"></stop></linearGradient><linearGradient x1="100%" y1="100%" x2="0%" y2="0%" id="SvgjsLinearGradient5316"><stop stop-color="rgba(51, 198, 189, 0)" offset="0"></stop><stop stop-color="rgba(51, 198, 189, 1)" offset="1"></stop></linearGradient><linearGradient x1="0%" y1="0%" x2="100%" y2="100%" id="SvgjsLinearGradient5317"><stop stop-color="rgba(154, 59, 164, 0)" offset="0"></stop><stop stop-color="rgba(154, 59, 164, 1)" offset="1"></stop></linearGradient><linearGradient x1="0%" y1="0%" x2="100%" y2="100%" id="SvgjsLinearGradient5318"><stop stop-color="rgba(61, 69, 149, 0)" offset="0"></stop><stop stop-color="rgba(61, 69, 149, 1)" offset="1"></stop></linearGradient><linearGradient x1="100%" y1="100%" x2="0%" y2="0%" id="SvgjsLinearGradient5319"><stop stop-color="rgba(28, 83, 142, 0)" offset="0"></stop><stop stop-color="#1c538e" offset="1"></stop></linearGradient><linearGradient x1="100%" y1="100%" x2="0%" y2="0%" id="SvgjsLinearGradient5320"><stop stop-color="rgba(61, 69, 149, 0)" offset="0"></stop><stop stop-color="rgba(61, 69, 149, 1)" offset="1"></stop></linearGradient><linearGradient x1="100%" y1="100%" x2="0%" y2="0%" id="SvgjsLinearGradient5321"><stop stop-color="rgba(154, 59, 164, 0)" offset="0"></stop><stop stop-color="rgba(154, 59, 164, 1)" offset="1"></stop></linearGradient><linearGradient x1="0%" y1="0%" x2="100%" y2="100%" id="SvgjsLinearGradient5322"><stop stop-color="rgba(28, 83, 142, 0)" offset="0"></stop><stop stop-color="#1c538e" offset="1"></stop></linearGradient></defs></svg>